<?xml version="1.0" encoding="UTF-8" standalone="no"?>
<!DOCTYPE svg PUBLIC "-//W3C//DTD SVG 1.1//EN"
 "http://www.w3.org/Graphics/SVG/1.1/DTD/svg11.dtd">
<!-- Generated by graphviz version 2.43.0 (0)
 -->
<!-- Title: gemma4&#45;12b&#45;uncensored&#45;1.5m route Pages: 1 -->
<svg width="724pt" height="294pt"
 viewBox="0.00 0.00 724.40 294.40" xmlns="http://www.w3.org/2000/svg" xmlns:xlink="http://www.w3.org/1999/xlink">
<g id="graph0" class="graph" transform="scale(1 1) rotate(0) translate(25.2 269.2)">
<title>gemma4&#45;12b&#45;uncensored&#45;1.5m route</title>
<polygon fill="white" stroke="transparent" points="-25.2,25.2 -25.2,-269.2 699.2,-269.2 699.2,25.2 -25.2,25.2"/>
<text text-anchor="middle" x="337" y="-9" font-family="Sans-Serif" font-size="15.00" fill="#2d3436">gemma4&#45;12b&#45;uncensored&#45;1.5m route</text>
<g id="clust1" class="cluster">
<title>cluster_k3s&#45;02 LiteLLM</title>
<path fill="#e5f5fd" stroke="#aeb6be" d="M304,-33C304,-33 397,-33 397,-33 403,-33 409,-39 409,-45 409,-45 409,-224 409,-224 409,-230 403,-236 397,-236 397,-236 304,-236 304,-236 298,-236 292,-230 292,-224 292,-224 292,-45 292,-45 292,-39 298,-33 304,-33"/>
<text text-anchor="middle" x="345" y="-222.4" font-family="Sans-Serif" font-size="12.00" fill="#2d3436">k3s&#45;02 LiteLLM</text>
</g>
<g id="clust2" class="cluster">
<title>cluster_dev&#45;workstation&#45;win</title>
<path fill="#e5f5fd" stroke="#aeb6be" d="M549,-33C549,-33 662,-33 662,-33 668,-33 674,-39 674,-45 674,-45 674,-224 674,-224 674,-230 668,-236 662,-236 662,-236 549,-236 549,-236 543,-236 537,-230 537,-224 537,-224 537,-45 537,-45 537,-39 543,-33 549,-33"/>
<text text-anchor="middle" x="605.5" y="-222.4" font-family="Sans-Serif" font-size="12.00" fill="#2d3436">dev&#45;workstation&#45;win</text>
</g>
<!-- 3731f697ea734524a0f4a5f3ff1fec4a -->
<g id="node1" class="node">
<title>3731f697ea734524a0f4a5f3ff1fec4a</title>
<image xlink:href="/usr/local/lib/python3.12/site-packages/resources/aws/general/user.png" width="101px" height="101px" preserveAspectRatio="xMinYMin meet" x="0" y="-174.5"/>
<text text-anchor="middle" x="50.5" y="-59.1" font-family="Sans-Serif" font-size="13.00" fill="#2d3436">Operator</text>
</g>
<!-- 463c34f2605045f3afa0e382335a4cc9 -->
<g id="node2" class="node">
<title>463c34f2605045f3afa0e382335a4cc9</title>
<image xlink:href="/usr/local/lib/python3.12/site-packages/resources/onprem/client/client.png" width="101px" height="101px" preserveAspectRatio="xMinYMin meet" x="150" y="-174.5"/>
<text text-anchor="middle" x="200.5" y="-58.6" font-family="Sans-Serif" font-size="13.00" fill="#2d3436">Open WebUI</text>
<text text-anchor="middle" x="200.5" y="-44.6" font-family="Sans-Serif" font-size="13.00" fill="#2d3436">(+ Arena pin)</text>
</g>
<!-- 3731f697ea734524a0f4a5f3ff1fec4a&#45;&gt;463c34f2605045f3afa0e382335a4cc9 -->
<g id="edge1" class="edge">
<title>3731f697ea734524a0f4a5f3ff1fec4a&#45;&gt;463c34f2605045f3afa0e382335a4cc9</title>
<path fill="none" stroke="#7b8894" d="M101.28,-124C101.28,-124 139.77,-124 139.77,-124"/>
<polygon fill="#7b8894" stroke="#7b8894" points="139.77,-127.5 149.77,-124 139.77,-120.5 139.77,-127.5"/>
</g>
<!-- 25284f26e7ed4066b3d58abde159ff06 -->
<g id="node3" class="node">
<title>25284f26e7ed4066b3d58abde159ff06</title>
<image xlink:href="/usr/local/lib/python3.12/site-packages/resources/onprem/container/docker.png" width="101px" height="101px" preserveAspectRatio="xMinYMin meet" x="300" y="-174.5"/>
<text text-anchor="middle" x="350.5" y="-58.6" font-family="Sans-Serif" font-size="13.00" fill="#2d3436">litellm</text>
<text text-anchor="middle" x="350.5" y="-44.6" font-family="Sans-Serif" font-size="13.00" fill="#2d3436">gemma4&#45;12b&#45;uncensored&#45;1.5m</text>
</g>
<!-- 463c34f2605045f3afa0e382335a4cc9&#45;&gt;25284f26e7ed4066b3d58abde159ff06 -->
<g id="edge2" class="edge">
<title>463c34f2605045f3afa0e382335a4cc9&#45;&gt;25284f26e7ed4066b3d58abde159ff06</title>
<path fill="none" stroke="#7b8894" d="M251.28,-124C251.28,-124 289.77,-124 289.77,-124"/>
<polygon fill="#7b8894" stroke="#7b8894" points="289.77,-127.5 299.77,-124 289.77,-120.5 289.77,-127.5"/>
</g>
<!-- af15bc51e3474189b0144881acb84b53 -->
<g id="node4" class="node">
<title>af15bc51e3474189b0144881acb84b53</title>
<image xlink:href="/usr/local/lib/python3.12/site-packages/resources/onprem/compute/server.png" width="101px" height="101px" preserveAspectRatio="xMinYMin meet" x="555" y="-174.5"/>
<text text-anchor="middle" x="605.5" y="-58.6" font-family="Sans-Serif" font-size="13.00" fill="#2d3436">Ollama</text>
<text text-anchor="middle" x="605.5" y="-44.6" font-family="Sans-Serif" font-size="13.00" fill="#2d3436">satgeze/gemma4&#45;…</text>
</g>
<!-- 25284f26e7ed4066b3d58abde159ff06&#45;&gt;af15bc51e3474189b0144881acb84b53 -->
<g id="edge3" class="edge">
<title>25284f26e7ed4066b3d58abde159ff06&#45;&gt;af15bc51e3474189b0144881acb84b53</title>
<path fill="none" stroke="#7b8894" d="M401.18,-124C401.18,-124 544.91,-124 544.91,-124"/>
<polygon fill="#7b8894" stroke="#7b8894" points="544.91,-127.5 554.91,-124 544.91,-120.5 544.91,-127.5"/>
<text text-anchor="middle" x="473" y="-127.6" font-family="Sans-Serif" font-size="13.00" fill="#2d3436">vision&#45;capable</text>
</g>
</g>
</svg>
