<?xml version="1.0" encoding="UTF-8" standalone="no"?>
<!DOCTYPE svg PUBLIC "-//W3C//DTD SVG 1.1//EN"
 "http://www.w3.org/Graphics/SVG/1.1/DTD/svg11.dtd">
<!-- Generated by graphviz version 2.43.0 (0)
 -->
<!-- Title: E2E 2 — ControlNet reference&#45;locked mock Pages: 1 -->
<svg width="1656pt" height="562pt"
 viewBox="0.00 0.00 1655.60 561.60" xmlns="http://www.w3.org/2000/svg" xmlns:xlink="http://www.w3.org/1999/xlink">
<g id="graph0" class="graph" transform="scale(1 1) rotate(0) translate(28.8 532.8)">
<title>E2E 2 — ControlNet reference&#45;locked mock</title>
<polygon fill="white" stroke="transparent" points="-28.8,28.8 -28.8,-532.8 1626.8,-532.8 1626.8,28.8 -28.8,28.8"/>
<text text-anchor="middle" x="799" y="-9" font-family="Sans-Serif" font-size="15.00" fill="#2d3436">E2E 2 — ControlNet reference&#45;locked mock</text>
<g id="clust1" class="cluster">
<title>cluster_Reference</title>
<path fill="#e5f5fd" stroke="#aeb6be" d="M156,-239C156,-239 401,-239 401,-239 407,-239 413,-245 413,-251 413,-251 413,-430 413,-430 413,-436 407,-442 401,-442 401,-442 156,-442 156,-442 150,-442 144,-436 144,-430 144,-430 144,-251 144,-251 144,-245 150,-239 156,-239"/>
<text text-anchor="middle" x="182.5" y="-428.4" font-family="Sans-Serif" font-size="12.00" fill="#2d3436">Reference</text>
</g>
<g id="clust2" class="cluster">
<title>cluster_Coach (optional)</title>
<path fill="#e5f5fd" stroke="#aeb6be" d="M527.5,-239C527.5,-239 938,-239 938,-239 944,-239 950,-245 950,-251 950,-251 950,-430 950,-430 950,-436 944,-442 938,-442 938,-442 527.5,-442 527.5,-442 521.5,-442 515.5,-436 515.5,-430 515.5,-430 515.5,-251 515.5,-251 515.5,-245 521.5,-239 527.5,-239"/>
<text text-anchor="middle" x="573" y="-428.4" font-family="Sans-Serif" font-size="12.00" fill="#2d3436">Coach (optional)</text>
</g>
<g id="clust3" class="cluster">
<title>cluster_Phase A ControlNet</title>
<path fill="#e5f5fd" stroke="#aeb6be" d="M1045,-33C1045,-33 1442,-33 1442,-33 1448,-33 1454,-39 1454,-45 1454,-45 1454,-430 1454,-430 1454,-436 1448,-442 1442,-442 1442,-442 1045,-442 1045,-442 1039,-442 1033,-436 1033,-430 1033,-430 1033,-45 1033,-45 1033,-39 1039,-33 1045,-33"/>
<text text-anchor="middle" x="1099" y="-428.4" font-family="Sans-Serif" font-size="12.00" fill="#2d3436">Phase A ControlNet</text>
</g>
<!-- 1084e56362fa46baa2a64c140c7913c6 -->
<g id="node1" class="node">
<title>1084e56362fa46baa2a64c140c7913c6</title>
<image xlink:href="/usr/local/lib/python3.12/site-packages/resources/aws/general/user.png" width="101px" height="101px" preserveAspectRatio="xMinYMin meet" x="0" y="-259.5"/>
<text text-anchor="middle" x="50.5" y="-144.1" font-family="Sans-Serif" font-size="13.00" fill="#2d3436">Operator</text>
</g>
<!-- 8f89d275979345f788069b7c9cabc437 -->
<g id="node2" class="node">
<title>8f89d275979345f788069b7c9cabc437</title>
<image xlink:href="/usr/local/lib/python3.12/site-packages/resources/aws/general/client.png" width="101px" height="101px" preserveAspectRatio="xMinYMin meet" x="152" y="-380.5"/>
<text text-anchor="middle" x="202.5" y="-264.6" font-family="Sans-Serif" font-size="13.00" fill="#2d3436">UI screenshot</text>
<text text-anchor="middle" x="202.5" y="-250.6" font-family="Sans-Serif" font-size="13.00" fill="#2d3436">or wireframe</text>
</g>
<!-- 1084e56362fa46baa2a64c140c7913c6&#45;&gt;8f89d275979345f788069b7c9cabc437 -->
<g id="edge1" class="edge">
<title>1084e56362fa46baa2a64c140c7913c6&#45;&gt;8f89d275979345f788069b7c9cabc437</title>
<path fill="none" stroke="#7b8894" d="M101.11,-262.25C101.11,-262.25 141.85,-262.25 141.85,-262.25"/>
<polygon fill="#7b8894" stroke="#7b8894" points="141.85,-265.75 151.85,-262.25 141.85,-258.75 141.85,-265.75"/>
</g>
<!-- 8eb869422ad641988035f396e5169b02 -->
<g id="node7" class="node">
<title>8eb869422ad641988035f396e5169b02</title>
<image xlink:href="/usr/local/lib/python3.12/site-packages/resources/aws/general/client.png" width="101px" height="101px" preserveAspectRatio="xMinYMin meet" x="1041" y="-380.5"/>
<text text-anchor="middle" x="1091.5" y="-264.6" font-family="Sans-Serif" font-size="13.00" fill="#2d3436">A1111 Web UI</text>
<text text-anchor="middle" x="1091.5" y="-250.6" font-family="Sans-Serif" font-size="13.00" fill="#2d3436">img2img + OpenPose</text>
</g>
<!-- 1084e56362fa46baa2a64c140c7913c6&#45;&gt;8eb869422ad641988035f396e5169b02 -->
<g id="edge7" class="edge">
<title>1084e56362fa46baa2a64c140c7913c6&#45;&gt;8eb869422ad641988035f396e5169b02</title>
<path fill="none" stroke="#7b8894" d="M101.09,-227C309.66,-227 1092,-227 1092,-227 1092,-227 1092,-236.86 1092,-236.86"/>
<polygon fill="#7b8894" stroke="#7b8894" points="1088.5,-236.86 1092,-246.86 1095.5,-236.86 1088.5,-236.86"/>
<text text-anchor="middle" x="574" y="-189.6" font-family="Sans-Serif" font-size="13.00" fill="#2d3436">denoise / CN knobs</text>
</g>
<!-- ca9db9151b9e4dcd9049ba0575030b4c -->
<g id="node3" class="node">
<title>ca9db9151b9e4dcd9049ba0575030b4c</title>
<image xlink:href="/usr/local/lib/python3.12/site-packages/resources/onprem/compute/server.png" width="101px" height="101px" preserveAspectRatio="xMinYMin meet" x="304" y="-380.5"/>
<text text-anchor="middle" x="354.5" y="-264.6" font-family="Sans-Serif" font-size="13.00" fill="#2d3436">Layout / pose</text>
<text text-anchor="middle" x="354.5" y="-250.6" font-family="Sans-Serif" font-size="13.00" fill="#2d3436">lock intent</text>
</g>
<!-- 8f89d275979345f788069b7c9cabc437&#45;&gt;ca9db9151b9e4dcd9049ba0575030b4c -->
<g id="edge2" class="edge">
<title>8f89d275979345f788069b7c9cabc437&#45;&gt;ca9db9151b9e4dcd9049ba0575030b4c</title>
<path fill="none" stroke="#7b8894" d="M253.11,-330C253.11,-330 293.85,-330 293.85,-330"/>
<polygon fill="#7b8894" stroke="#7b8894" points="293.85,-333.5 303.85,-330 293.85,-326.5 293.85,-333.5"/>
</g>
<!-- 37e9060305444e0eb03d83186ec4b850 -->
<g id="node8" class="node">
<title>37e9060305444e0eb03d83186ec4b850</title>
<image xlink:href="/usr/local/lib/python3.12/site-packages/resources/onprem/compute/server.png" width="101px" height="101px" preserveAspectRatio="xMinYMin meet" x="1193" y="-380.5"/>
<text text-anchor="middle" x="1243.5" y="-264.6" font-family="Sans-Serif" font-size="13.00" fill="#2d3436">Automatic1111</text>
<text text-anchor="middle" x="1243.5" y="-250.6" font-family="Sans-Serif" font-size="13.00" fill="#2d3436">HVH&#45;01 GTX 1060</text>
</g>
<!-- 8f89d275979345f788069b7c9cabc437&#45;&gt;37e9060305444e0eb03d83186ec4b850 -->
<g id="edge10" class="edge">
<title>8f89d275979345f788069b7c9cabc437&#45;&gt;37e9060305444e0eb03d83186ec4b850</title>
<path fill="none" stroke="#7b8894" d="M203,-413.41C203,-423.87 203,-431 203,-431 203,-431 1244,-431 1244,-431 1244,-431 1244,-423.41 1244,-423.41"/>
<polygon fill="#7b8894" stroke="#7b8894" points="1247.5,-423.41 1244,-413.41 1240.5,-423.41 1247.5,-423.41"/>
<text text-anchor="middle" x="739.5" y="-493.6" font-family="Sans-Serif" font-size="13.00" fill="#2d3436">init image</text>
</g>
<!-- 1e09b8ac9c1748ff96c1b434eb33ce73 -->
<g id="node4" class="node">
<title>1e09b8ac9c1748ff96c1b434eb33ce73</title>
<image xlink:href="/usr/local/lib/python3.12/site-packages/resources/onprem/container/docker.png" width="101px" height="101px" preserveAspectRatio="xMinYMin meet" x="523.5" y="-380.5"/>
<text text-anchor="middle" x="574" y="-265.1" font-family="Sans-Serif" font-size="13.00" fill="#2d3436">Open WebUI chat</text>
</g>
<!-- ca9db9151b9e4dcd9049ba0575030b4c&#45;&gt;1e09b8ac9c1748ff96c1b434eb33ce73 -->
<g id="edge3" class="edge">
<title>ca9db9151b9e4dcd9049ba0575030b4c&#45;&gt;1e09b8ac9c1748ff96c1b434eb33ce73</title>
<path fill="none" stroke="#7b8894" d="M405.13,-330C405.13,-330 513.24,-330 513.24,-330"/>
<polygon fill="#7b8894" stroke="#7b8894" points="513.24,-333.5 523.24,-330 513.24,-326.5 513.24,-333.5"/>
<text text-anchor="middle" x="457.5" y="-333.6" font-family="Sans-Serif" font-size="13.00" fill="#2d3436">optional</text>
</g>
<!-- 2971d85843784664ac238d6f27ee6c58 -->
<g id="node5" class="node">
<title>2971d85843784664ac238d6f27ee6c58</title>
<image xlink:href="/usr/local/lib/python3.12/site-packages/resources/onprem/container/docker.png" width="101px" height="101px" preserveAspectRatio="xMinYMin meet" x="689" y="-380.5"/>
<text text-anchor="middle" x="739.5" y="-265.1" font-family="Sans-Serif" font-size="13.00" fill="#2d3436">LiteLLM</text>
</g>
<!-- 1e09b8ac9c1748ff96c1b434eb33ce73&#45;&gt;2971d85843784664ac238d6f27ee6c58 -->
<g id="edge4" class="edge">
<title>1e09b8ac9c1748ff96c1b434eb33ce73&#45;&gt;2971d85843784664ac238d6f27ee6c58</title>
<path fill="none" stroke="#7b8894" d="M624.55,-330C624.55,-330 678.97,-330 678.97,-330"/>
<polygon fill="#7b8894" stroke="#7b8894" points="678.97,-333.5 688.97,-330 678.97,-326.5 678.97,-333.5"/>
</g>
<!-- fa19e3c49b944ed3a9bf9f2b94ad3079 -->
<g id="node6" class="node">
<title>fa19e3c49b944ed3a9bf9f2b94ad3079</title>
<image xlink:href="/usr/local/lib/python3.12/site-packages/resources/onprem/compute/server.png" width="101px" height="101px" preserveAspectRatio="xMinYMin meet" x="841" y="-380.5"/>
<text text-anchor="middle" x="891.5" y="-264.6" font-family="Sans-Serif" font-size="13.00" fill="#2d3436">Desktop Ollama</text>
<text text-anchor="middle" x="891.5" y="-250.6" font-family="Sans-Serif" font-size="13.00" fill="#2d3436">prompt polish</text>
</g>
<!-- 2971d85843784664ac238d6f27ee6c58&#45;&gt;fa19e3c49b944ed3a9bf9f2b94ad3079 -->
<g id="edge5" class="edge">
<title>2971d85843784664ac238d6f27ee6c58&#45;&gt;fa19e3c49b944ed3a9bf9f2b94ad3079</title>
<path fill="none" stroke="#7b8894" d="M790.11,-330C790.11,-330 830.85,-330 830.85,-330"/>
<polygon fill="#7b8894" stroke="#7b8894" points="830.85,-333.5 840.85,-330 830.85,-326.5 830.85,-333.5"/>
</g>
<!-- fa19e3c49b944ed3a9bf9f2b94ad3079&#45;&gt;8eb869422ad641988035f396e5169b02 -->
<g id="edge6" class="edge">
<title>fa19e3c49b944ed3a9bf9f2b94ad3079&#45;&gt;8eb869422ad641988035f396e5169b02</title>
<path fill="none" stroke="#7b8894" stroke-dasharray="5,2" d="M942.23,-330C942.23,-330 1030.83,-330 1030.83,-330"/>
<polygon fill="#7b8894" stroke="#7b8894" points="1030.83,-333.5 1040.83,-330 1030.83,-326.5 1030.83,-333.5"/>
<text text-anchor="middle" x="991.5" y="-333.6" font-family="Sans-Serif" font-size="13.00" fill="#2d3436">prompt</text>
</g>
<!-- 8eb869422ad641988035f396e5169b02&#45;&gt;37e9060305444e0eb03d83186ec4b850 -->
<g id="edge8" class="edge">
<title>8eb869422ad641988035f396e5169b02&#45;&gt;37e9060305444e0eb03d83186ec4b850</title>
<path fill="none" stroke="#7b8894" d="M1142.11,-330C1142.11,-330 1182.85,-330 1182.85,-330"/>
<polygon fill="#7b8894" stroke="#7b8894" points="1182.85,-333.5 1192.85,-330 1182.85,-326.5 1182.85,-333.5"/>
</g>
<!-- 658cdea4e99a4871b70d3fe18b6ce9a3 -->
<g id="node10" class="node">
<title>658cdea4e99a4871b70d3fe18b6ce9a3</title>
<image xlink:href="/usr/local/lib/python3.12/site-packages/resources/onprem/compute/server.png" width="101px" height="101px" preserveAspectRatio="xMinYMin meet" x="1345" y="-380.5"/>
<text text-anchor="middle" x="1395.5" y="-264.6" font-family="Sans-Serif" font-size="13.00" fill="#2d3436">Lab share</text>
<text text-anchor="middle" x="1395.5" y="-250.6" font-family="Sans-Serif" font-size="13.00" fill="#2d3436">mocks/out</text>
</g>
<!-- 37e9060305444e0eb03d83186ec4b850&#45;&gt;658cdea4e99a4871b70d3fe18b6ce9a3 -->
<g id="edge11" class="edge">
<title>37e9060305444e0eb03d83186ec4b850&#45;&gt;658cdea4e99a4871b70d3fe18b6ce9a3</title>
<path fill="none" stroke="#7b8894" d="M1294.11,-330C1294.11,-330 1334.85,-330 1334.85,-330"/>
<polygon fill="#7b8894" stroke="#7b8894" points="1334.85,-333.5 1344.85,-330 1334.85,-326.5 1334.85,-333.5"/>
</g>
<!-- 0dab869f755c4a6cba9962c284ceead8 -->
<g id="node9" class="node">
<title>0dab869f755c4a6cba9962c284ceead8</title>
<image xlink:href="/usr/local/lib/python3.12/site-packages/resources/onprem/compute/server.png" width="101px" height="101px" preserveAspectRatio="xMinYMin meet" x="1041" y="-174.5"/>
<text text-anchor="middle" x="1091.5" y="-58.6" font-family="Sans-Serif" font-size="13.00" fill="#2d3436">ControlNet packs</text>
<text text-anchor="middle" x="1091.5" y="-44.6" font-family="Sans-Serif" font-size="13.00" fill="#2d3436">OpenPose / softedge</text>
</g>
<!-- 0dab869f755c4a6cba9962c284ceead8&#45;&gt;37e9060305444e0eb03d83186ec4b850 -->
<g id="edge9" class="edge">
<title>0dab869f755c4a6cba9962c284ceead8&#45;&gt;37e9060305444e0eb03d83186ec4b850</title>
<path fill="none" stroke="#7b8894" d="M1142.28,-124C1186.64,-124 1244,-124 1244,-124 1244,-124 1244,-236.81 1244,-236.81"/>
<polygon fill="#7b8894" stroke="#7b8894" points="1240.5,-236.81 1244,-246.81 1247.5,-236.81 1240.5,-236.81"/>
</g>
<!-- b24b0b28af694755a73bbbeb3d5e67bc -->
<g id="node11" class="node">
<title>b24b0b28af694755a73bbbeb3d5e67bc</title>
<image xlink:href="/usr/local/lib/python3.12/site-packages/resources/aws/general/client.png" width="101px" height="101px" preserveAspectRatio="xMinYMin meet" x="1497" y="-380.5"/>
<text text-anchor="middle" x="1547.5" y="-264.6" font-family="Sans-Serif" font-size="13.00" fill="#2d3436">Design review</text>
<text text-anchor="middle" x="1547.5" y="-250.6" font-family="Sans-Serif" font-size="13.00" fill="#2d3436">/ capacity note</text>
</g>
<!-- 658cdea4e99a4871b70d3fe18b6ce9a3&#45;&gt;b24b0b28af694755a73bbbeb3d5e67bc -->
<g id="edge12" class="edge">
<title>658cdea4e99a4871b70d3fe18b6ce9a3&#45;&gt;b24b0b28af694755a73bbbeb3d5e67bc</title>
<path fill="none" stroke="#7b8894" d="M1446.11,-330C1446.11,-330 1486.85,-330 1486.85,-330"/>
<polygon fill="#7b8894" stroke="#7b8894" points="1486.85,-333.5 1496.85,-330 1486.85,-326.5 1486.85,-333.5"/>
</g>
</g>
</svg>
