<?xml version="1.0" encoding="UTF-8" standalone="no"?>
<!DOCTYPE svg PUBLIC "-//W3C//DTD SVG 1.1//EN"
 "http://www.w3.org/Graphics/SVG/1.1/DTD/svg11.dtd">
<!-- Generated by graphviz version 2.43.0 (0)
 -->
<!-- Title: E2E 1 — Lab&#45;doc still via Open WebUI Images Pages: 1 -->
<svg width="1515pt" height="599pt"
 viewBox="0.00 0.00 1514.60 598.60" xmlns="http://www.w3.org/2000/svg" xmlns:xlink="http://www.w3.org/1999/xlink">
<g id="graph0" class="graph" transform="scale(1 1) rotate(0) translate(28.8 569.8)">
<title>E2E 1 — Lab&#45;doc still via Open WebUI Images</title>
<polygon fill="white" stroke="transparent" points="-28.8,28.8 -28.8,-569.8 1485.8,-569.8 1485.8,28.8 -28.8,28.8"/>
<text text-anchor="middle" x="728.5" y="-9" font-family="Sans-Serif" font-size="15.00" fill="#2d3436">E2E 1 — Lab&#45;doc still via Open WebUI Images</text>
<g id="clust1" class="cluster">
<title>cluster_Brief</title>
<path fill="#e5f5fd" stroke="#aeb6be" d="M156,-330C156,-330 753,-330 753,-330 759,-330 765,-336 765,-342 765,-342 765,-521 765,-521 765,-527 759,-533 753,-533 753,-533 156,-533 156,-533 150,-533 144,-527 144,-521 144,-521 144,-342 144,-342 144,-336 150,-330 156,-330"/>
<text text-anchor="middle" x="166.5" y="-519.4" font-family="Sans-Serif" font-size="12.00" fill="#2d3436">Brief</text>
</g>
<g id="clust2" class="cluster">
<title>cluster_Phase A still</title>
<path fill="#e5f5fd" stroke="#aeb6be" d="M869,-33C869,-33 1301,-33 1301,-33 1307,-33 1313,-39 1313,-45 1313,-45 1313,-430 1313,-430 1313,-436 1307,-442 1301,-442 1301,-442 869,-442 869,-442 863,-442 857,-436 857,-430 857,-430 857,-45 857,-45 857,-39 863,-33 869,-33"/>
<text text-anchor="middle" x="901" y="-428.4" font-family="Sans-Serif" font-size="12.00" fill="#2d3436">Phase A still</text>
</g>
<!-- 74e1a265fa934a47ab146e71c7998792 -->
<g id="node1" class="node">
<title>74e1a265fa934a47ab146e71c7998792</title>
<image xlink:href="/usr/local/lib/python3.12/site-packages/resources/aws/general/user.png" width="101px" height="101px" preserveAspectRatio="xMinYMin meet" x="0" y="-350.5"/>
<text text-anchor="middle" x="50.5" y="-235.1" font-family="Sans-Serif" font-size="13.00" fill="#2d3436">Operator</text>
</g>
<!-- 5ae31ba6736546e6a66505386b5b0a30 -->
<g id="node2" class="node">
<title>5ae31ba6736546e6a66505386b5b0a30</title>
<image xlink:href="/usr/local/lib/python3.12/site-packages/resources/onprem/compute/server.png" width="101px" height="101px" preserveAspectRatio="xMinYMin meet" x="152" y="-471.5"/>
<text text-anchor="middle" x="202.5" y="-355.6" font-family="Sans-Serif" font-size="13.00" fill="#2d3436">Runbook / NetBox</text>
<text text-anchor="middle" x="202.5" y="-341.6" font-family="Sans-Serif" font-size="13.00" fill="#2d3436">/ plan notes</text>
</g>
<!-- 74e1a265fa934a47ab146e71c7998792&#45;&gt;5ae31ba6736546e6a66505386b5b0a30 -->
<g id="edge1" class="edge">
<title>74e1a265fa934a47ab146e71c7998792&#45;&gt;5ae31ba6736546e6a66505386b5b0a30</title>
<path fill="none" stroke="#7b8894" d="M101.11,-353.25C101.11,-353.25 141.85,-353.25 141.85,-353.25"/>
<polygon fill="#7b8894" stroke="#7b8894" points="141.85,-356.75 151.85,-353.25 141.85,-349.75 141.85,-356.75"/>
</g>
<!-- cd9bfd3747a04017a069633e6764f1e6 -->
<g id="node6" class="node">
<title>cd9bfd3747a04017a069633e6764f1e6</title>
<image xlink:href="/usr/local/lib/python3.12/site-packages/resources/onprem/container/docker.png" width="101px" height="101px" preserveAspectRatio="xMinYMin meet" x="865" y="-380.5"/>
<text text-anchor="middle" x="915.5" y="-264.6" font-family="Sans-Serif" font-size="13.00" fill="#2d3436">Open WebUI</text>
<text text-anchor="middle" x="915.5" y="-250.6" font-family="Sans-Serif" font-size="13.00" fill="#2d3436">Images button</text>
</g>
<!-- 74e1a265fa934a47ab146e71c7998792&#45;&gt;cd9bfd3747a04017a069633e6764f1e6 -->
<g id="edge6" class="edge">
<title>74e1a265fa934a47ab146e71c7998792&#45;&gt;cd9bfd3747a04017a069633e6764f1e6</title>
<path fill="none" stroke="#7b8894" d="M101.06,-292.5C101.06,-292.5 854.9,-292.5 854.9,-292.5"/>
<polygon fill="#7b8894" stroke="#7b8894" points="854.9,-296 864.9,-292.5 854.9,-289 854.9,-296"/>
<text text-anchor="middle" x="454.5" y="-280.6" font-family="Sans-Serif" font-size="13.00" fill="#2d3436">Images</text>
</g>
<!-- c38f875558614f8f91ea1cbbcdbd3ebe -->
<g id="node3" class="node">
<title>c38f875558614f8f91ea1cbbcdbd3ebe</title>
<image xlink:href="/usr/local/lib/python3.12/site-packages/resources/onprem/container/docker.png" width="101px" height="101px" preserveAspectRatio="xMinYMin meet" x="304" y="-471.5"/>
<text text-anchor="middle" x="354.5" y="-355.6" font-family="Sans-Serif" font-size="13.00" fill="#2d3436">Open WebUI chat</text>
<text text-anchor="middle" x="354.5" y="-341.6" font-family="Sans-Serif" font-size="13.00" fill="#2d3436">studio&#45;coach</text>
</g>
<!-- 5ae31ba6736546e6a66505386b5b0a30&#45;&gt;c38f875558614f8f91ea1cbbcdbd3ebe -->
<g id="edge2" class="edge">
<title>5ae31ba6736546e6a66505386b5b0a30&#45;&gt;c38f875558614f8f91ea1cbbcdbd3ebe</title>
<path fill="none" stroke="#7b8894" d="M253.11,-421C253.11,-421 293.85,-421 293.85,-421"/>
<polygon fill="#7b8894" stroke="#7b8894" points="293.85,-424.5 303.85,-421 293.85,-417.5 293.85,-424.5"/>
</g>
<!-- c5679950c8df4f40ae1760e5a880ee53 -->
<g id="node4" class="node">
<title>c5679950c8df4f40ae1760e5a880ee53</title>
<image xlink:href="/usr/local/lib/python3.12/site-packages/resources/onprem/container/docker.png" width="101px" height="101px" preserveAspectRatio="xMinYMin meet" x="504" y="-471.5"/>
<text text-anchor="middle" x="554.5" y="-355.6" font-family="Sans-Serif" font-size="13.00" fill="#2d3436">LiteLLM</text>
<text text-anchor="middle" x="554.5" y="-341.6" font-family="Sans-Serif" font-size="13.00" fill="#2d3436">coaching only</text>
</g>
<!-- c38f875558614f8f91ea1cbbcdbd3ebe&#45;&gt;c5679950c8df4f40ae1760e5a880ee53 -->
<g id="edge3" class="edge">
<title>c38f875558614f8f91ea1cbbcdbd3ebe&#45;&gt;c5679950c8df4f40ae1760e5a880ee53</title>
<path fill="none" stroke="#7b8894" d="M405.23,-421C405.23,-421 493.83,-421 493.83,-421"/>
<polygon fill="#7b8894" stroke="#7b8894" points="493.83,-424.5 503.83,-421 493.83,-417.5 493.83,-424.5"/>
</g>
<!-- 30e72cc0101e4d58a3c0d295f240b13f -->
<g id="node5" class="node">
<title>30e72cc0101e4d58a3c0d295f240b13f</title>
<image xlink:href="/usr/local/lib/python3.12/site-packages/resources/onprem/compute/server.png" width="101px" height="101px" preserveAspectRatio="xMinYMin meet" x="656" y="-471.5"/>
<text text-anchor="middle" x="706.5" y="-355.6" font-family="Sans-Serif" font-size="13.00" fill="#2d3436">Desktop Ollama</text>
<text text-anchor="middle" x="706.5" y="-341.6" font-family="Sans-Serif" font-size="13.00" fill="#2d3436">brief writer</text>
</g>
<!-- c5679950c8df4f40ae1760e5a880ee53&#45;&gt;30e72cc0101e4d58a3c0d295f240b13f -->
<g id="edge4" class="edge">
<title>c5679950c8df4f40ae1760e5a880ee53&#45;&gt;30e72cc0101e4d58a3c0d295f240b13f</title>
<path fill="none" stroke="#7b8894" d="M605.11,-421C605.11,-421 645.85,-421 645.85,-421"/>
<polygon fill="#7b8894" stroke="#7b8894" points="645.85,-424.5 655.85,-421 645.85,-417.5 645.85,-424.5"/>
</g>
<!-- 30e72cc0101e4d58a3c0d295f240b13f&#45;&gt;cd9bfd3747a04017a069633e6764f1e6 -->
<g id="edge5" class="edge">
<title>30e72cc0101e4d58a3c0d295f240b13f&#45;&gt;cd9bfd3747a04017a069633e6764f1e6</title>
<path fill="none" stroke="#7b8894" d="M757.09,-375.5C757.09,-375.5 854.65,-375.5 854.65,-375.5"/>
<polygon fill="#7b8894" stroke="#7b8894" points="854.65,-379 864.65,-375.5 854.65,-372 854.65,-379"/>
<text text-anchor="middle" x="811" y="-385.6" font-family="Sans-Serif" font-size="13.00" fill="#2d3436">still brief</text>
</g>
<!-- aeed7318f0a341c685d4729b392c17c7 -->
<g id="node7" class="node">
<title>aeed7318f0a341c685d4729b392c17c7</title>
<image xlink:href="/usr/local/lib/python3.12/site-packages/resources/onprem/compute/server.png" width="101px" height="101px" preserveAspectRatio="xMinYMin meet" x="1052" y="-237.5"/>
<text text-anchor="middle" x="1102.5" y="-121.6" font-family="Sans-Serif" font-size="13.00" fill="#2d3436">Automatic1111</text>
<text text-anchor="middle" x="1102.5" y="-107.6" font-family="Sans-Serif" font-size="13.00" fill="#2d3436">sdapi txt2img</text>
</g>
<!-- cd9bfd3747a04017a069633e6764f1e6&#45;&gt;aeed7318f0a341c685d4729b392c17c7 -->
<g id="edge7" class="edge">
<title>cd9bfd3747a04017a069633e6764f1e6&#45;&gt;aeed7318f0a341c685d4729b392c17c7</title>
<path fill="none" stroke="#7b8894" d="M966.1,-258.5C966.1,-258.5 1041.85,-258.5 1041.85,-258.5"/>
<polygon fill="#7b8894" stroke="#7b8894" points="1041.85,-262 1051.85,-258.5 1041.85,-255 1041.85,-262"/>
<text text-anchor="middle" x="1009" y="-284.6" font-family="Sans-Serif" font-size="13.00" fill="#2d3436">sdapi</text>
</g>
<!-- e6eeb03a0ad64ee5bdac70da990d227b -->
<g id="node9" class="node">
<title>e6eeb03a0ad64ee5bdac70da990d227b</title>
<image xlink:href="/usr/local/lib/python3.12/site-packages/resources/onprem/compute/server.png" width="101px" height="101px" preserveAspectRatio="xMinYMin meet" x="1204" y="-237.5"/>
<text text-anchor="middle" x="1254.5" y="-121.6" font-family="Sans-Serif" font-size="13.00" fill="#2d3436">Lab share</text>
<text text-anchor="middle" x="1254.5" y="-107.6" font-family="Sans-Serif" font-size="13.00" fill="#2d3436">docs/stills/out</text>
</g>
<!-- aeed7318f0a341c685d4729b392c17c7&#45;&gt;e6eeb03a0ad64ee5bdac70da990d227b -->
<g id="edge9" class="edge">
<title>aeed7318f0a341c685d4729b392c17c7&#45;&gt;e6eeb03a0ad64ee5bdac70da990d227b</title>
<path fill="none" stroke="#7b8894" d="M1153.11,-187C1153.11,-187 1193.85,-187 1193.85,-187"/>
<polygon fill="#7b8894" stroke="#7b8894" points="1193.85,-190.5 1203.85,-187 1193.85,-183.5 1193.85,-190.5"/>
</g>
<!-- d6fa617335164c8bb7637bbe0850f33e -->
<g id="node8" class="node">
<title>d6fa617335164c8bb7637bbe0850f33e</title>
<image xlink:href="/usr/local/lib/python3.12/site-packages/resources/onprem/compute/server.png" width="101px" height="101px" preserveAspectRatio="xMinYMin meet" x="865" y="-174.5"/>
<text text-anchor="middle" x="915.5" y="-58.6" font-family="Sans-Serif" font-size="13.00" fill="#2d3436">CyberRealistic</text>
<text text-anchor="middle" x="915.5" y="-44.6" font-family="Sans-Serif" font-size="13.00" fill="#2d3436">SD1.5 on HVH&#45;01</text>
</g>
<!-- d6fa617335164c8bb7637bbe0850f33e&#45;&gt;aeed7318f0a341c685d4729b392c17c7 -->
<g id="edge8" class="edge">
<title>d6fa617335164c8bb7637bbe0850f33e&#45;&gt;aeed7318f0a341c685d4729b392c17c7</title>
<path fill="none" stroke="#7b8894" d="M966.1,-155.5C966.1,-155.5 1041.85,-155.5 1041.85,-155.5"/>
<polygon fill="#7b8894" stroke="#7b8894" points="1041.85,-159 1051.85,-155.5 1041.85,-152 1041.85,-159"/>
</g>
<!-- b7f12b44e6a14e4e913da0b9c3aa0e57 -->
<g id="node10" class="node">
<title>b7f12b44e6a14e4e913da0b9c3aa0e57</title>
<image xlink:href="/usr/local/lib/python3.12/site-packages/resources/aws/general/client.png" width="101px" height="101px" preserveAspectRatio="xMinYMin meet" x="1356" y="-237.5"/>
<text text-anchor="middle" x="1406.5" y="-121.6" font-family="Sans-Serif" font-size="13.00" fill="#2d3436">Embed in plan</text>
<text text-anchor="middle" x="1406.5" y="-107.6" font-family="Sans-Serif" font-size="13.00" fill="#2d3436">issue / runbook</text>
</g>
<!-- e6eeb03a0ad64ee5bdac70da990d227b&#45;&gt;b7f12b44e6a14e4e913da0b9c3aa0e57 -->
<g id="edge10" class="edge">
<title>e6eeb03a0ad64ee5bdac70da990d227b&#45;&gt;b7f12b44e6a14e4e913da0b9c3aa0e57</title>
<path fill="none" stroke="#7b8894" d="M1305.11,-187C1305.11,-187 1345.85,-187 1345.85,-187"/>
<polygon fill="#7b8894" stroke="#7b8894" points="1345.85,-190.5 1355.85,-187 1345.85,-183.5 1345.85,-190.5"/>
</g>
</g>
</svg>
